<svg width="60" height="61" viewBox="0 0 60 61" fill="none" xmlns="http://www.w3.org/2000/svg">
<path d="M60 30.5C60 47.0685 46.5685 60.5 30 60.5C13.4315 60.5 0 47.0685 0 30.5C0 13.9315 13.4315 0.5 30 0.5C46.5685 0.5 60 13.9315 60 30.5Z" fill="#00B6BD"/>
<path d="M30.3 36.7001C29.6 36.7001 29.2 36.4001 29.1 35.8001C28.3 34.8001 27.7 33.4001 27.2 32.3001C26.5 31.2001 26.2 30.0001 25.7 28.9001C25 27.9001 25.7 26.8001 26.6 26.8001C27.1 26.8001 27.6 26.7001 27.7 26.5001L25 17.1001C23.4 17.4001 21.4 18.8001 21 21.4001C20.8 22.7001 22.7 28.2001 24.9 33.4001C27.6 38.8001 31.1 43.7001 32 44.2001C34.5 45.1001 36.5 45.1001 38 43.6001L32 35.8001C31.5 36.4001 31.1 36.8001 30.3 36.7001Z" fill="white"/>
<path d="M29.6 24.4999L28.2 18.1999C27.8 17.2999 27.1 16.6999 25.9 16.8999L28.2 26.4999C29.5 26.1999 30.1 25.2999 29.6 24.4999Z" fill="white"/>
<path d="M39.2 40.8996L35.1 35.4996C34.7 34.7996 33.8 34.6996 32.7 35.4996L38.4 43.2996L38.8 43.0996C39.3 42.4996 39.7 41.6996 39.2 40.8996Z" fill="white"/>
</svg>
