<svg width="60" height="60" viewBox="0 0 60 60" fill="none" xmlns="http://www.w3.org/2000/svg">
<path d="M60 30C60 46.5685 46.5685 60 30 60C13.4315 60 0 46.5685 0 30C0 13.4315 13.4315 0 30 0C46.5685 0 60 13.4315 60 30Z" fill="#00B6BD"/>
<path d="M40.0364 41.2001C39.5029 41.2001 38.9503 40.9932 38.5311 40.5793L32.4718 34.5969C32.3194 34.4464 32.2241 34.2207 32.2241 33.9949C32.2241 33.7692 32.3194 33.5623 32.4718 33.3929L34.2629 31.6246C34.6059 31.2859 35.1394 31.2859 35.4824 31.6246L41.5417 37.6069C42.361 38.4159 42.361 39.7516 41.5417 40.5793C41.1225 40.9932 40.5699 41.2001 40.0364 41.2001ZM33.4245 33.9949L39.3123 39.808C39.7125 40.2031 40.3413 40.2031 40.7414 39.808C41.1415 39.4129 41.1415 38.7921 40.7414 38.3971L34.8536 32.584L33.4245 33.9949Z" fill="white" stroke="white" stroke-width="2" stroke-miterlimit="10"/>
<path d="M33.044 34.1459C32.8916 34.1459 32.7582 34.0895 32.6438 33.9766L31.291 32.6409C31.0814 32.434 31.0814 32.0765 31.291 31.8696C31.5006 31.6627 31.8626 31.6627 32.0722 31.8696L33.0249 32.8102L33.6347 32.2082L32.701 31.2488C32.4914 31.0418 32.4914 30.6844 32.701 30.4775C32.9106 30.2705 33.2726 30.2705 33.4822 30.4775L34.8351 31.8132C34.9304 31.9072 35.0066 32.0577 35.0066 32.2082C35.0066 32.3587 34.9494 32.4904 34.8351 32.6033L33.4251 33.9954C33.3489 34.0895 33.1964 34.1459 33.044 34.1459Z" fill="white" stroke="white" stroke-width="2" stroke-miterlimit="10"/>
<path d="M27.2322 34.296C25.1172 34.296 23.1165 33.4871 21.6112 32.0009C20.1059 30.5147 19.2866 28.5582 19.2866 26.4512C19.2866 24.3631 20.1059 22.3878 21.6112 20.9016C23.1165 19.4154 25.0981 18.6064 27.2322 18.6064C29.3663 18.6064 31.348 19.4154 32.8533 20.9016C34.3585 22.3878 35.1779 24.3442 35.1779 26.4512C35.1779 28.5394 34.3585 30.5147 32.8533 32.0009C31.348 33.4871 29.3473 34.296 27.2322 34.296ZM27.2322 19.7164C25.403 19.7164 23.6881 20.4124 22.4115 21.6917C21.1158 22.9709 20.4108 24.6641 20.4108 26.4512C20.4108 28.2572 21.1158 29.9504 22.4115 31.2108C23.7072 32.49 25.4221 33.1861 27.2322 33.1861C29.0424 33.1861 30.7763 32.49 32.053 31.2108C33.3487 29.9315 34.0537 28.2384 34.0537 26.4512C34.0537 24.6452 33.3487 22.9521 32.053 21.6917C30.7573 20.4124 29.0424 19.7164 27.2322 19.7164Z" fill="white" stroke="white" stroke-width="2" stroke-miterlimit="10"/>
</svg>
