<svg width="60" height="60" viewBox="0 0 60 60" fill="none" xmlns="http://www.w3.org/2000/svg">
<path d="M60 30C60 46.5685 46.5685 60 30 60C13.4315 60 0 46.5685 0 30C0 13.4315 13.4315 0 30 0C46.5685 0 60 13.4315 60 30Z" fill="#00B6BD"/>
<path d="M23.8 39.5999C23.6 39.5999 23.4 39.4999 23.2 39.3999C22.8 39.0999 22.7 38.6999 22.8 38.1999L24.9 31.5999L19.3 27.4999C19 27.2999 18.8 26.8999 19 26.3999C19.1 25.9999 19.5 25.6999 20 25.6999H26.9L29 19.0999C29.1 18.6999 29.5 18.3999 30 18.3999C30.5 18.3999 30.9 18.6999 31 19.0999L33.1 25.6999H40C40.5 25.6999 40.9 25.9999 41 26.3999C41.1 26.7999 41 27.2999 40.6 27.5999L35 31.6999L37.1 38.2999C37.2 38.6999 37.1 39.1999 36.7 39.4999C36.3 39.7999 35.8 39.7999 35.5 39.4999L30 35.2999L24.4 39.3999C24.2 39.4999 24 39.5999 23.8 39.5999ZM23.2 27.7999L26.8 30.3999C27.2 30.6999 27.3 31.0999 27.2 31.5999L25.8 35.7999L29.4 33.1999C29.8 32.8999 30.3 32.8999 30.6 33.1999L34.2 35.7999L32.8 31.5999C32.7 31.1999 32.8 30.6999 33.2 30.3999L36.8 27.7999H32.4C31.9 27.7999 31.5 27.4999 31.4 27.0999L30 22.8999L28.6 27.0999C28.5 27.4999 28.1 27.7999 27.6 27.7999H23.2Z" fill="white" stroke="white" stroke-miterlimit="10"/>
</svg>
