<svg width="60" height="60" viewBox="0 0 60 60" fill="none" xmlns="http://www.w3.org/2000/svg">
<path d="M60 30C60 46.5685 46.5685 60 30 60C13.4315 60 0 46.5685 0 30C0 13.4315 13.4315 0 30 0C46.5685 0 60 13.4315 60 30Z" fill="#00B6BD"/>
<path d="M20.9 28.8C21.2 29 21.6 29 21.7 29C22 29 22.5 28.9 22.5 28.6L29.2 19.9C29.4 19.4 29.4 18.8 28.9 18.4C28.5 17.9 27.7 18 27.3 18.5L20.8 27.1C20.4 27.6 20.6 28.4 20.9 28.8Z" fill="#FFFEFE"/>
<path d="M40.6 26H39.4L39.7 26.7C40.1 27.1 40.1 27.6 40.1 28.2C40.1 28.7 39.9 29.1 39.4 29.5C39 29.8 38.6 29.9 38 29.9C37.6 29.9 36.8 29.7 36.4 29.1L34.2 26H25.6L23.3 29.1C23.1 29.7 22.4 29.9 21.7 29.9C21.3 29.9 20.7 29.8 20.6 29.5C20.2 29.1 19.7 28.7 19.6 28.2C19.6 27.6 19.8 27.1 20.2 26.7L20.6 26H19.6C18.6 26 18 26.8 18 27.6V28.7C18 29.7 18.6 30.3 19.6 30.3V37.5C19.6 38.9 20.6 39.9 21.9 39.9H38.6C39.8 39.9 40.8 38.9 40.8 37.5V30.3C41.6 30.2 42.1 29.6 42.1 28.7V27.6C42.1 26.9 41.4 26 40.6 26ZM23.1 37.3C23.1 37.7 22.8 38.1 22.4 38.1C21.9 38.1 21.9 37.7 21.9 37.3V31.4C21.9 31 22 30.7 22.4 30.7C22.8 30.7 23.1 31 23.1 31.4V37.3ZM26.9 37.3C26.9 37.7 26.7 38.1 26.3 38.1C26.1 38.1 25.7 37.7 25.7 37.3V31.4C25.7 31 26.1 30.7 26.3 30.7C26.7 30.7 26.9 31 26.9 31.4V37.3ZM31 37.3C31 37.7 30.5 38.1 30.2 38.1C29.7 38.1 29.3 37.7 29.3 37.3V31.4C29.3 31 29.6 30.7 30.2 30.7C30.5 30.7 31 31 31 31.4V37.3ZM34.7 37.3C34.7 37.7 34.5 38.1 33.9 38.1C33.7 38.1 33.2 37.7 33.2 37.3V31.4C33.2 31 33.7 30.7 33.9 30.7C34.5 30.7 34.7 31 34.7 31.4V37.3ZM38.6 37.3C38.6 37.7 38.4 38.1 37.9 38.1C37.6 38.1 37.2 37.7 37.2 37.3V31.4C37.2 31 37.7 30.7 37.9 30.7C38.4 30.7 38.6 31 38.6 31.4V37.3Z" fill="#FFFEFE"/>
<path d="M37.4 28.6002C37.4 28.9002 37.9 29.0002 38 29.0002C38.3 29.0002 38.5 29.0002 38.7 28.8002C39.3 28.5002 39.3 27.7002 39.1 27.2002L32.4 18.6002C32 18.0002 31.5 17.9002 31 18.4002C30.5 18.8002 30.3 19.4002 30.8 19.9002L37.4 28.6002Z" fill="#FFFEFE"/>
</svg>
